<svg width="100" height="100" viewBox="0 0 100 100" fill="none" xmlns="http://www.w3.org/2000/svg">
<rect width="100" height="100" rx="19" fill="#1E1E1E"/>
<path d="M23.1304 44.8777C25.7072 44.8777 26.5232 43.4032 26.5232 42.172C26.5232 38.6075 20.797 39.9531 20.797 37.5052C20.797 36.4745 21.7562 35.7444 23.0302 35.7444C24.1039 35.7444 25.0773 36.1166 25.7645 36.9469L26.3085 36.3457C25.5784 35.501 24.4904 35 23.0732 35C21.341 35 19.9381 35.9878 19.9381 37.5481C19.9381 40.8836 25.6643 39.4235 25.6643 42.2293C25.6643 43.0453 25.106 44.1332 23.1591 44.1332C21.7848 44.1332 20.7827 43.4461 20.1671 42.7447L19.6375 43.3602C20.3676 44.2335 21.5557 44.8777 23.1304 44.8777ZM34.5406 44.7059V43.9615H29.3012V40.1822H34.4404V39.4378H29.3012V35.9019H34.5406V35.1575H28.4852V44.7059H34.5406ZM40.5167 44.7059L44.4248 35.1575H43.48L40.0156 43.7897L36.537 35.1575H35.5922L39.5003 44.7059H40.5167ZM51.8897 44.7059V43.9615H46.6503V40.1822H51.7895V39.4378H46.6503V35.9019H51.8897V35.1575H45.8343V44.7059H51.8897ZM61.5448 44.7059V35.1575H60.7288V43.2457L54.7449 35.1575H53.9146V44.7059H54.7306V36.5031L60.7431 44.7059H61.5448ZM67.1882 44.7059V35.9019H70.3089V35.1575H63.2371V35.9019H66.3579V44.7059H67.1882ZM79.6921 44.7059V35.1575H78.8761V39.4235H72.8207V35.1575H72.0047V44.7059H72.8207V40.1679H78.8761V44.7059H79.6921ZM34.2777 64.7475L38.276 50.7113H34.9301L32.468 60.8544L29.8165 50.7113H27.4806L24.8081 60.8544L22.3459 50.7113H19L23.0193 64.7475H26.1969L28.638 55.1095L31.1001 64.7475H34.2777ZM45.9452 65C50.1749 65 53.2684 61.9697 53.2684 57.7399C53.2684 53.5101 50.1749 50.4799 45.9452 50.4799C41.6943 50.4799 38.6009 53.5101 38.6009 57.7399C38.6009 61.9697 41.6943 65 45.9452 65ZM45.9452 62.3485C43.3357 62.3485 41.6733 60.3493 41.6733 57.7399C41.6733 55.1095 43.3357 53.1314 45.9452 53.1314C48.5335 53.1314 50.196 55.1095 50.196 57.7399C50.196 60.3493 48.5335 62.3485 45.9452 62.3485ZM66.7499 64.7475L63.5723 59.4024C65.0875 59.0446 66.6657 57.6978 66.6657 55.2357C66.6657 52.6263 64.856 50.7113 61.9309 50.7113H55.3653V64.7475H58.3535V59.7601H60.542L63.2988 64.7475H66.7499ZM61.51 57.1297H58.3535V53.3418H61.51C62.6885 53.3418 63.5934 54.0573 63.5934 55.2147C63.5934 56.4142 62.6885 57.1297 61.51 57.1297ZM74.443 64.7475C78.8201 64.7475 81.8715 61.9697 81.8715 57.7189C81.8715 53.5101 78.8201 50.7113 74.422 50.7113H68.8875V64.7475H74.443ZM74.422 62.117H71.8757V53.3418H74.443C77.305 53.3418 78.8201 55.2568 78.8201 57.7189C78.8201 60.1179 77.1998 62.117 74.422 62.117Z" fill="white"/>
</svg>
