<svg width="63" height="30" viewBox="0 0 63 30" fill="none" xmlns="http://www.w3.org/2000/svg">
<path d="M4.13043 9.87765C6.70721 9.87765 7.52319 8.40316 7.52319 7.17203C7.52319 3.60749 1.79702 4.95314 1.79702 2.5052C1.79702 1.47449 2.75615 0.744403 4.03022 0.744403C5.10388 0.744403 6.07733 1.1166 6.76447 1.9469L7.30846 1.34565C6.57837 0.50104 5.4904 0 4.07317 0C2.341 0 0.93809 0.987765 0.93809 2.54815C0.93809 5.88364 6.66426 4.42347 6.66426 7.2293C6.66426 8.04528 6.10596 9.13325 4.15906 9.13325C2.78478 9.13325 1.7827 8.44611 1.16714 7.74465L0.637466 8.36022C1.36755 9.23346 2.55573 9.87765 4.13043 9.87765ZM15.5406 9.70586V8.96146H10.3012V5.18219H15.4404V4.43779H10.3012V0.901872H15.5406V0.15747H9.48519V9.70586H15.5406ZM21.5167 9.70586L25.4248 0.15747H24.48L21.0156 8.78968L17.537 0.15747H16.5922L20.5003 9.70586H21.5167ZM32.8897 9.70586V8.96146H27.6503V5.18219H32.7895V4.43779H27.6503V0.901872H32.8897V0.15747H26.8343V9.70586H32.8897ZM42.5448 9.70586V0.15747H41.7288V8.24569L35.7449 0.15747H34.9146V9.70586H35.7306V1.50312L41.7431 9.70586H42.5448ZM48.1882 9.70586V0.901872H51.3089V0.15747H44.2371V0.901872H47.3579V9.70586H48.1882ZM60.6921 9.70586V0.15747H59.8761V4.42347H53.8207V0.15747H53.0047V9.70586H53.8207V5.16787H59.8761V9.70586H60.6921ZM15.2777 29.7475L19.276 15.7113H15.9301L13.468 25.8544L10.8165 15.7113H8.48061L5.80806 25.8544L3.34595 15.7113H0L4.01934 29.7475H7.19694L9.63801 20.1095L12.1001 29.7475H15.2777ZM26.9452 30C31.1749 30 34.2684 26.9697 34.2684 22.7399C34.2684 18.5101 31.1749 15.4799 26.9452 15.4799C22.6943 15.4799 19.6009 18.5101 19.6009 22.7399C19.6009 26.9697 22.6943 30 26.9452 30ZM26.9452 27.3485C24.3357 27.3485 22.6733 25.3493 22.6733 22.7399C22.6733 20.1095 24.3357 18.1314 26.9452 18.1314C29.5335 18.1314 31.196 20.1095 31.196 22.7399C31.196 25.3493 29.5335 27.3485 26.9452 27.3485ZM47.7499 29.7475L44.5723 24.4024C46.0875 24.0446 47.6657 22.6978 47.6657 20.2357C47.6657 17.6263 45.856 15.7113 42.9309 15.7113H36.3653V29.7475H39.3535V24.7601H41.542L44.2988 29.7475H47.7499ZM42.51 22.1297H39.3535V18.3418H42.51C43.6885 18.3418 44.5934 19.0573 44.5934 20.2147C44.5934 21.4142 43.6885 22.1297 42.51 22.1297ZM55.443 29.7475C59.8201 29.7475 62.8715 26.9697 62.8715 22.7189C62.8715 18.5101 59.8201 15.7113 55.422 15.7113H49.8875V29.7475H55.443ZM55.422 27.117H52.8757V18.3418H55.443C58.305 18.3418 59.8201 20.2568 59.8201 22.7189C59.8201 25.1179 58.1998 27.117 55.422 27.117Z" fill="#1E1E1E"/>
</svg>
