<svg width="3126" height="1898" viewBox="0 0 3126 1898" fill="none" xmlns="http://www.w3.org/2000/svg">
<rect width="3126" height="1898" fill="url(#paint0_linear_212_7)"/>
<rect x="127.5" y="127.5" width="2871" height="1643" stroke="white" stroke-width="15"/>
<line x1="120" y1="1590.75" x2="3006" y2="1590.75" stroke="white" stroke-width="15"/>
<path d="M190.057 1719V1660.82H213.011C217.424 1660.82 221.184 1661.66 224.29 1663.35C227.396 1665.01 229.763 1667.33 231.392 1670.31C233.04 1673.26 233.864 1676.67 233.864 1680.53C233.864 1684.4 233.03 1687.81 231.364 1690.76C229.697 1693.72 227.282 1696.02 224.119 1697.66C220.975 1699.31 217.169 1700.14 212.699 1700.14H198.068V1690.28H210.71C213.078 1690.28 215.028 1689.87 216.562 1689.06C218.116 1688.22 219.271 1687.08 220.028 1685.62C220.805 1684.14 221.193 1682.45 221.193 1680.53C221.193 1678.6 220.805 1676.92 220.028 1675.48C219.271 1674.02 218.116 1672.89 216.562 1672.1C215.009 1671.28 213.04 1670.88 210.653 1670.88H202.358V1719H190.057ZM241.854 1719V1660.82H264.808C269.202 1660.82 272.952 1661.6 276.058 1663.18C279.183 1664.73 281.56 1666.94 283.189 1669.8C284.837 1672.64 285.661 1675.98 285.661 1679.82C285.661 1683.69 284.827 1687.01 283.161 1689.8C281.494 1692.56 279.079 1694.68 275.916 1696.16C272.772 1697.64 268.965 1698.38 264.496 1698.38H249.126V1688.49H262.507C264.856 1688.49 266.806 1688.17 268.359 1687.52C269.912 1686.88 271.068 1685.91 271.825 1684.62C272.602 1683.34 272.99 1681.74 272.99 1679.82C272.99 1677.89 272.602 1676.26 271.825 1674.94C271.068 1673.61 269.903 1672.61 268.331 1671.93C266.778 1671.23 264.818 1670.88 262.45 1670.88H254.155V1719H241.854ZM273.274 1692.52L287.734 1719H274.155L260.007 1692.52H273.274ZM347.82 1689.91C347.82 1696.25 346.617 1701.65 344.212 1706.1C341.825 1710.55 338.568 1713.95 334.439 1716.3C330.329 1718.63 325.708 1719.8 320.575 1719.8C315.405 1719.8 310.765 1718.62 306.655 1716.27C302.545 1713.92 299.297 1710.52 296.911 1706.07C294.524 1701.62 293.331 1696.23 293.331 1689.91C293.331 1683.56 294.524 1678.17 296.911 1673.72C299.297 1669.27 302.545 1665.87 306.655 1663.55C310.765 1661.2 315.405 1660.02 320.575 1660.02C325.708 1660.02 330.329 1661.2 334.439 1663.55C338.568 1665.87 341.825 1669.27 344.212 1673.72C346.617 1678.17 347.82 1683.56 347.82 1689.91ZM335.348 1689.91C335.348 1685.8 334.732 1682.33 333.501 1679.51C332.289 1676.69 330.575 1674.55 328.359 1673.09C326.143 1671.63 323.549 1670.9 320.575 1670.9C317.602 1670.9 315.007 1671.63 312.791 1673.09C310.575 1674.55 308.852 1676.69 307.621 1679.51C306.409 1682.33 305.803 1685.8 305.803 1689.91C305.803 1694.02 306.409 1697.48 307.621 1700.31C308.852 1703.13 310.575 1705.27 312.791 1706.73C315.007 1708.19 317.602 1708.91 320.575 1708.91C323.549 1708.91 326.143 1708.19 328.359 1706.73C330.575 1705.27 332.289 1703.13 333.501 1700.31C334.732 1697.48 335.348 1694.02 335.348 1689.91ZM380.227 1660.82H392.386V1701.39C392.386 1705.14 391.544 1708.39 389.858 1711.16C388.191 1713.92 385.871 1716.05 382.898 1717.55C379.924 1719.05 376.468 1719.8 372.528 1719.8C369.025 1719.8 365.843 1719.18 362.983 1717.95C360.142 1716.7 357.888 1714.8 356.222 1712.27C354.555 1709.71 353.731 1706.5 353.75 1702.64H365.994C366.032 1704.17 366.345 1705.49 366.932 1706.59C367.538 1707.66 368.362 1708.5 369.403 1709.09C370.464 1709.65 371.714 1709.94 373.153 1709.94C374.669 1709.94 375.947 1709.62 376.989 1708.97C378.049 1708.31 378.854 1707.34 379.403 1706.07C379.953 1704.8 380.227 1703.24 380.227 1701.39V1660.82ZM402.557 1719V1660.82H441.761V1670.96H414.858V1684.82H439.744V1694.97H414.858V1708.86H441.875V1719H402.557ZM502.876 1681.19H490.433C490.206 1679.58 489.742 1678.15 489.041 1676.9C488.34 1675.63 487.441 1674.55 486.342 1673.66C485.244 1672.77 483.975 1672.09 482.536 1671.61C481.115 1671.14 479.571 1670.9 477.905 1670.9C474.893 1670.9 472.27 1671.65 470.036 1673.15C467.801 1674.62 466.068 1676.78 464.837 1679.62C463.606 1682.45 462.99 1685.87 462.99 1689.91C462.99 1694.06 463.606 1697.54 464.837 1700.36C466.087 1703.19 467.829 1705.32 470.064 1706.76C472.299 1708.2 474.884 1708.91 477.82 1708.91C479.467 1708.91 480.992 1708.7 482.393 1708.26C483.814 1707.83 485.073 1707.19 486.172 1706.36C487.27 1705.51 488.179 1704.47 488.899 1703.26C489.638 1702.05 490.149 1700.67 490.433 1699.11L502.876 1699.17C502.554 1701.84 501.75 1704.42 500.462 1706.9C499.193 1709.36 497.479 1711.57 495.32 1713.52C493.179 1715.45 490.623 1716.98 487.649 1718.12C484.695 1719.24 481.352 1719.8 477.621 1719.8C472.431 1719.8 467.791 1718.62 463.7 1716.27C459.628 1713.92 456.409 1710.52 454.041 1706.07C451.693 1701.62 450.518 1696.23 450.518 1689.91C450.518 1683.56 451.712 1678.17 454.098 1673.72C456.484 1669.27 459.723 1665.87 463.814 1663.55C467.905 1661.2 472.507 1660.02 477.621 1660.02C480.992 1660.02 484.117 1660.5 486.996 1661.44C489.893 1662.39 492.46 1663.77 494.695 1665.59C496.929 1667.39 498.748 1669.6 500.149 1672.21C501.57 1674.82 502.479 1677.82 502.876 1681.19ZM509.482 1670.96V1660.82H557.266V1670.96H539.453V1719H527.294V1670.96H509.482ZM583.651 1719V1660.82H606.946C611.226 1660.82 614.796 1661.45 617.656 1662.72C620.516 1663.99 622.666 1665.75 624.105 1668.01C625.545 1670.24 626.264 1672.82 626.264 1675.73C626.264 1678.01 625.81 1680 624.901 1681.73C623.991 1683.43 622.741 1684.83 621.151 1685.93C619.579 1687.01 617.779 1687.78 615.753 1688.23V1688.8C617.969 1688.9 620.043 1689.52 621.974 1690.68C623.925 1691.83 625.507 1693.45 626.719 1695.53C627.931 1697.6 628.537 1700.06 628.537 1702.92C628.537 1706.01 627.77 1708.76 626.236 1711.19C624.721 1713.59 622.476 1715.5 619.503 1716.9C616.529 1718.3 612.865 1719 608.509 1719H583.651ZM595.952 1708.94H605.98C609.408 1708.94 611.908 1708.29 613.48 1706.98C615.052 1705.66 615.838 1703.9 615.838 1701.7C615.838 1700.09 615.45 1698.67 614.673 1697.44C613.897 1696.21 612.789 1695.24 611.349 1694.54C609.929 1693.84 608.234 1693.49 606.264 1693.49H595.952V1708.94ZM595.952 1685.16H605.071C606.757 1685.16 608.253 1684.87 609.56 1684.28C610.885 1683.68 611.927 1682.83 612.685 1681.73C613.461 1680.63 613.849 1679.31 613.849 1677.78C613.849 1675.68 613.101 1673.98 611.605 1672.69C610.128 1671.41 608.026 1670.76 605.298 1670.76H595.952V1685.16ZM690.007 1689.91C690.007 1696.25 688.804 1701.65 686.399 1706.1C684.013 1710.55 680.755 1713.95 676.626 1716.3C672.517 1718.63 667.895 1719.8 662.763 1719.8C657.592 1719.8 652.952 1718.62 648.842 1716.27C644.732 1713.92 641.484 1710.52 639.098 1706.07C636.712 1701.62 635.518 1696.23 635.518 1689.91C635.518 1683.56 636.712 1678.17 639.098 1673.72C641.484 1669.27 644.732 1665.87 648.842 1663.55C652.952 1661.2 657.592 1660.02 662.763 1660.02C667.895 1660.02 672.517 1661.2 676.626 1663.55C680.755 1665.87 684.013 1669.27 686.399 1673.72C688.804 1678.17 690.007 1683.56 690.007 1689.91ZM677.536 1689.91C677.536 1685.8 676.92 1682.33 675.689 1679.51C674.477 1676.69 672.763 1674.55 670.547 1673.09C668.331 1671.63 665.736 1670.9 662.763 1670.9C659.789 1670.9 657.195 1671.63 654.979 1673.09C652.763 1674.55 651.039 1676.69 649.808 1679.51C648.596 1682.33 647.99 1685.8 647.99 1689.91C647.99 1694.02 648.596 1697.48 649.808 1700.31C651.039 1703.13 652.763 1705.27 654.979 1706.73C657.195 1708.19 659.789 1708.91 662.763 1708.91C665.736 1708.91 668.331 1708.19 670.547 1706.73C672.763 1705.27 674.477 1703.13 675.689 1700.31C676.92 1697.48 677.536 1694.02 677.536 1689.91ZM705.866 1719H692.685L712.77 1660.82H728.622L748.679 1719H735.497L720.923 1674.11H720.469L705.866 1719ZM705.043 1696.13H736.179V1705.73H705.043V1696.13ZM755.682 1719V1660.82H778.636C783.03 1660.82 786.78 1661.6 789.886 1663.18C793.011 1664.73 795.388 1666.94 797.017 1669.8C798.665 1672.64 799.489 1675.98 799.489 1679.82C799.489 1683.69 798.655 1687.01 796.989 1689.8C795.322 1692.56 792.907 1694.68 789.744 1696.16C786.6 1697.64 782.794 1698.38 778.324 1698.38H762.955V1688.49H776.335C778.684 1688.49 780.634 1688.17 782.188 1687.52C783.741 1686.88 784.896 1685.91 785.653 1684.62C786.43 1683.34 786.818 1681.74 786.818 1679.82C786.818 1677.89 786.43 1676.26 785.653 1674.94C784.896 1673.61 783.731 1672.61 782.159 1671.93C780.606 1671.23 778.646 1670.88 776.278 1670.88H767.983V1719H755.682ZM787.102 1692.52L801.562 1719H787.983L773.835 1692.52H787.102ZM828.807 1719H808.182V1660.82H828.977C834.83 1660.82 839.867 1661.98 844.091 1664.31C848.314 1666.62 851.563 1669.95 853.835 1674.28C856.127 1678.62 857.273 1683.81 857.273 1689.85C857.273 1695.91 856.127 1701.12 853.835 1705.48C851.563 1709.83 848.295 1713.18 844.034 1715.51C839.792 1717.84 834.716 1719 828.807 1719ZM820.483 1708.46H828.295C831.932 1708.46 834.991 1707.82 837.472 1706.53C839.972 1705.22 841.847 1703.2 843.097 1700.48C844.366 1697.73 845 1694.19 845 1689.85C845 1685.55 844.366 1682.04 843.097 1679.31C841.847 1676.59 839.981 1674.58 837.5 1673.29C835.019 1672 831.96 1671.36 828.324 1671.36H820.483V1708.46Z" fill="white"/>
<path d="M2323.62 1677.55C2323.39 1675.26 2322.42 1673.48 2320.69 1672.21C2318.97 1670.94 2316.63 1670.31 2313.68 1670.31C2311.67 1670.31 2309.97 1670.59 2308.59 1671.16C2307.21 1671.71 2306.15 1672.48 2305.41 1673.46C2304.69 1674.45 2304.33 1675.56 2304.33 1676.81C2304.29 1677.85 2304.51 1678.76 2304.98 1679.54C2305.48 1680.32 2306.15 1680.99 2307 1681.56C2307.85 1682.11 2308.84 1682.59 2309.95 1683.01C2311.07 1683.4 2312.27 1683.74 2313.53 1684.03L2318.76 1685.28C2321.3 1685.85 2323.63 1686.6 2325.75 1687.55C2327.87 1688.5 2329.71 1689.66 2331.26 1691.05C2332.81 1692.43 2334.02 1694.06 2334.87 1695.93C2335.74 1697.81 2336.19 1699.96 2336.2 1702.38C2336.19 1705.94 2335.28 1709.03 2333.48 1711.64C2331.7 1714.24 2329.12 1716.25 2325.75 1717.69C2322.4 1719.11 2318.35 1719.82 2313.62 1719.82C2308.92 1719.82 2304.83 1719.1 2301.35 1717.66C2297.88 1716.23 2295.17 1714.09 2293.22 1711.27C2291.29 1708.43 2290.28 1704.92 2290.18 1700.73H2302.09C2302.22 1702.68 2302.78 1704.31 2303.76 1705.62C2304.77 1706.91 2306.1 1707.88 2307.77 1708.55C2309.45 1709.19 2311.36 1709.51 2313.48 1709.51C2315.56 1709.51 2317.37 1709.21 2318.9 1708.6C2320.46 1708 2321.66 1707.15 2322.51 1706.07C2323.36 1704.99 2323.79 1703.75 2323.79 1702.35C2323.79 1701.05 2323.4 1699.95 2322.62 1699.06C2321.87 1698.17 2320.75 1697.41 2319.27 1696.78C2317.81 1696.16 2316.02 1695.59 2313.9 1695.08L2307.57 1693.49C2302.66 1692.3 2298.79 1690.43 2295.95 1687.89C2293.11 1685.35 2291.7 1681.94 2291.72 1677.64C2291.7 1674.11 2292.63 1671.04 2294.53 1668.4C2296.44 1665.77 2299.06 1663.72 2302.4 1662.24C2305.73 1660.76 2309.52 1660.02 2313.76 1660.02C2318.08 1660.02 2321.85 1660.76 2325.07 1662.24C2328.31 1663.72 2330.83 1665.77 2332.62 1668.4C2334.42 1671.04 2335.35 1674.09 2335.41 1677.55H2323.62ZM2344.48 1719V1660.82H2383.68V1670.96H2356.78V1684.82H2381.67V1694.97H2356.78V1708.86H2383.8V1719H2344.48ZM2403.97 1660.82L2418.04 1705.02H2418.58L2432.67 1660.82H2446.3L2426.25 1719H2410.39L2390.31 1660.82H2403.97ZM2453.31 1719V1660.82H2492.51V1670.96H2465.61V1684.82H2490.49V1694.97H2465.61V1708.86H2492.62V1719H2453.31ZM2550.96 1660.82V1719H2540.33L2515.02 1682.38H2514.59V1719H2502.29V1660.82H2513.09L2538.2 1697.41H2538.71V1660.82H2550.96ZM2558.9 1670.96V1660.82H2606.69V1670.96H2588.88V1719H2576.72V1670.96H2558.9ZM2614.56 1719V1660.82H2626.86V1684.82H2651.83V1660.82H2664.1V1719H2651.83V1694.97H2626.86V1719H2614.56ZM2705.86 1719L2689.21 1660.82H2702.65L2712.28 1701.24H2712.76L2723.38 1660.82H2734.89L2745.49 1701.33H2746L2755.63 1660.82H2769.07L2752.42 1719H2740.43L2729.35 1680.96H2728.9L2717.85 1719H2705.86ZM2825.84 1689.91C2825.84 1696.25 2824.63 1701.65 2822.23 1706.1C2819.84 1710.55 2816.58 1713.95 2812.45 1716.3C2808.34 1718.63 2803.72 1719.8 2798.59 1719.8C2793.42 1719.8 2788.78 1718.62 2784.67 1716.27C2780.56 1713.92 2777.31 1710.52 2774.93 1706.07C2772.54 1701.62 2771.35 1696.23 2771.35 1689.91C2771.35 1683.56 2772.54 1678.17 2774.93 1673.72C2777.31 1669.27 2780.56 1665.87 2784.67 1663.55C2788.78 1661.2 2793.42 1660.02 2798.59 1660.02C2803.72 1660.02 2808.34 1661.2 2812.45 1663.55C2816.58 1665.87 2819.84 1669.27 2822.23 1673.72C2824.63 1678.17 2825.84 1683.56 2825.84 1689.91ZM2813.36 1689.91C2813.36 1685.8 2812.75 1682.33 2811.52 1679.51C2810.3 1676.69 2808.59 1674.55 2806.38 1673.09C2804.16 1671.63 2801.56 1670.9 2798.59 1670.9C2795.62 1670.9 2793.02 1671.63 2790.81 1673.09C2788.59 1674.55 2786.87 1676.69 2785.64 1679.51C2784.42 1682.33 2783.82 1685.8 2783.82 1689.91C2783.82 1694.02 2784.42 1697.48 2785.64 1700.31C2786.87 1703.13 2788.59 1705.27 2790.81 1706.73C2793.02 1708.19 2795.62 1708.91 2798.59 1708.91C2801.56 1708.91 2804.16 1708.19 2806.38 1706.73C2808.59 1705.27 2810.3 1703.13 2811.52 1700.31C2812.75 1697.48 2813.36 1694.02 2813.36 1689.91ZM2834.95 1719V1660.82H2857.9C2862.3 1660.82 2866.05 1661.6 2869.15 1663.18C2872.28 1664.73 2874.65 1666.94 2876.28 1669.8C2877.93 1672.64 2878.75 1675.98 2878.75 1679.82C2878.75 1683.69 2877.92 1687.01 2876.25 1689.8C2874.59 1692.56 2872.17 1694.68 2869.01 1696.16C2865.87 1697.64 2862.06 1698.38 2857.59 1698.38H2842.22V1688.49H2855.6C2857.95 1688.49 2859.9 1688.17 2861.45 1687.52C2863.01 1686.88 2864.16 1685.91 2864.92 1684.62C2865.7 1683.34 2866.08 1681.74 2866.08 1679.82C2866.08 1677.89 2865.7 1676.26 2864.92 1674.94C2864.16 1673.61 2863 1672.61 2861.42 1671.93C2859.87 1671.23 2857.91 1670.88 2855.54 1670.88H2847.25V1719H2834.95ZM2866.37 1692.52L2880.83 1719H2867.25L2853.1 1692.52H2866.37ZM2908.07 1719H2887.45V1660.82H2908.24C2914.1 1660.82 2919.13 1661.98 2923.36 1664.31C2927.58 1666.62 2930.83 1669.95 2933.1 1674.28C2935.39 1678.62 2936.54 1683.81 2936.54 1689.85C2936.54 1695.91 2935.39 1701.12 2933.1 1705.48C2930.83 1709.83 2927.56 1713.18 2923.3 1715.51C2919.06 1717.84 2913.98 1719 2908.07 1719ZM2899.75 1708.46H2907.56C2911.2 1708.46 2914.26 1707.82 2916.74 1706.53C2919.24 1705.22 2921.11 1703.2 2922.36 1700.48C2923.63 1697.73 2924.27 1694.19 2924.27 1689.85C2924.27 1685.55 2923.63 1682.04 2922.36 1679.31C2921.11 1676.59 2919.25 1674.58 2916.77 1673.29C2914.28 1672 2911.23 1671.36 2907.59 1671.36H2899.75V1708.46Z" fill="white"/>
<g clip-path="url(#clip0_212_7)">
<line x1="270" y1="439.5" x2="904.01" y2="439.5" stroke="white" stroke-width="15"/>
<circle cx="402.5" cy="579.5" r="42.5" fill="white"/>
<circle cx="402.5" cy="694.5" r="35" stroke="white" stroke-width="15"/>
<circle cx="402.5" cy="809.5" r="42.5" fill="white"/>
<circle cx="402.5" cy="924.5" r="35" stroke="white" stroke-width="15"/>
<circle cx="402.5" cy="1039.5" r="42.5" fill="white"/>
</g>
<rect x="277.5" y="274.5" width="619" height="1170" rx="32.5" stroke="white" stroke-width="15"/>
<g clip-path="url(#clip1_212_7)">
<line x1="1024" y1="439.5" x2="1658.01" y2="439.5" stroke="white" stroke-width="15"/>
<circle cx="1156.5" cy="579.5" r="42.5" fill="white"/>
<circle cx="1156.5" cy="694.5" r="35" stroke="white" stroke-width="15"/>
</g>
<rect x="1031.5" y="274.5" width="619" height="567" rx="32.5" stroke="white" stroke-width="15"/>
<g clip-path="url(#clip2_212_7)">
<line x1="1778" y1="439.5" x2="2412.01" y2="439.5" stroke="white" stroke-width="15"/>
<circle cx="1910.5" cy="579.5" r="42.5" fill="white"/>
<circle cx="1910.5" cy="694.5" r="35" stroke="white" stroke-width="15"/>
</g>
<rect x="1785.5" y="274.5" width="619" height="567" rx="32.5" stroke="white" stroke-width="15"/>
<defs>
<linearGradient id="paint0_linear_212_7" x1="718" y1="6.837e-05" x2="2825.07" y2="1504.31" gradientUnits="userSpaceOnUse">
<stop stop-color="#2F363E"/>
<stop offset="1" stop-color="#495058"/>
</linearGradient>
<clipPath id="clip0_212_7">
<rect x="270" y="267" width="634" height="1185" rx="40" fill="white"/>
</clipPath>
<clipPath id="clip1_212_7">
<rect x="1024" y="267" width="634" height="582" rx="40" fill="white"/>
</clipPath>
<clipPath id="clip2_212_7">
<rect x="1778" y="267" width="634" height="582" rx="40" fill="white"/>
</clipPath>
</defs>
</svg>
